<?xml version="1.0" encoding="utf-8"?>
<!-- Generator: Adobe Illustrator 27.5.0, SVG Export Plug-In . SVG Version: 6.00 Build 0)  -->
<svg version="1.1" id="Layer_1" xmlns="http://www.w3.org/2000/svg" xmlns:xlink="http://www.w3.org/1999/xlink" x="0px" y="0px"
	 viewBox="0 0 900 900" style="enable-background:new 0 0 900 900;display:none;" xml:space="preserve">
<radialGradient id="SVGID_1_" cx="449.5" cy="449.5002" r="450.5001" gradientUnits="userSpaceOnUse">
	<stop  offset="0" style="stop-color:#94DDDC"/>
	<stop  offset="1" style="stop-color:#18AEC8"/>
</radialGradient>
<rect x="-1" y="-1" style="display:inline;fill:url(#SVGID_1_);" width="901" height="901"/>
<g style="display:inline;">
	<path style="fill:none;stroke:#FFFFFF;stroke-width:3.8727;stroke-linecap:round;stroke-linejoin:round;stroke-miterlimit:10;" d="
		M654.901,649.47"/>
	<path style="fill:none;stroke:#FFFFFF;stroke-width:3.8727;stroke-linecap:round;stroke-linejoin:round;stroke-miterlimit:10;" d="
		M639.047,633.615"/>
	<path style="fill:none;stroke:#FFFFFF;stroke-width:3.8727;stroke-linecap:round;stroke-linejoin:round;stroke-miterlimit:10;" d="
		M654.901,617.761"/>
	<path style="fill:none;stroke:#FFFFFF;stroke-width:3.8727;stroke-linecap:round;stroke-linejoin:round;stroke-miterlimit:10;" d="
		M654.901,617.761c0,8.756-7.099,15.854-15.854,15.854c8.756,0,15.854,7.099,15.854,15.855c0-8.756,7.099-15.855,15.854-15.855
		C662,633.615,654.901,626.517,654.901,617.761z"/>
	<path style="fill:none;stroke:#FFFFFF;stroke-width:3.8727;stroke-linecap:round;stroke-linejoin:round;stroke-miterlimit:10;" d="
		M670.756,633.615"/>
</g>
<polygon style="display:inline;fill:#FFFFFF;" points="510.987,234.291 537.333,187.685 567.854,203.664 594.508,152.745 
	631.702,171.219 646.097,140.858 634.961,140.4 658.002,119.83 656.656,150.688 649.255,142.355 633.334,175.929 596.018,157.396 
	569.329,208.379 538.71,192.349 514.029,236.011 "/>
<g style="display:inline;">
	<path style="fill:none;stroke:#FFFFFF;stroke-width:3.8727;stroke-linecap:round;stroke-linejoin:round;stroke-miterlimit:10;" d="
		M629.726,783.532c1.193-7.209,2.507-15.136,3.392-20.481"/>
	<path style="fill:none;stroke:#FFFFFF;stroke-width:3.8727;stroke-linecap:round;stroke-linejoin:round;stroke-miterlimit:10;" d="
		M643.266,764.408c-0.873,5.268-2.188,13.213-3.391,20.479"/>
	
		<polygon style="fill:none;stroke:#FFFFFF;stroke-width:3.8727;stroke-linecap:round;stroke-linejoin:round;stroke-miterlimit:10;" points="
		617.544,793.634 629.657,783.937 639.755,785.609 647.509,798.597 	"/>
	<g>
		
			<path style="fill:none;stroke:#FFFFFF;stroke-width:3.8727;stroke-linecap:round;stroke-linejoin:round;stroke-miterlimit:10;" d="
			M679.321,707.043c9.869,1.634,26.725,4.426,26.725,4.426l-0.989,3.766c-0.122,0.469-3.094,11.608-9.809,22.306
			c-9.102,14.502-20.751,21.22-33.739,19.479 M668.426,749.964c16.477-2.411,25.544-23.974,28.59-32.798
			c0,0-13.218-2.19-18.666-3.092"/>
	</g>
	<g>
		
			<path style="fill:none;stroke:#FFFFFF;stroke-width:3.8727;stroke-linecap:round;stroke-linejoin:round;stroke-miterlimit:10;" d="
			M616.101,703.763c-5.407-0.896-18.731-3.102-18.731-3.102c0.039,9.505,1.729,33.522,17.308,40.663 M616.689,749.515
			c-12.075-2.995-20.421-12.965-24.214-28.996c-2.908-12.291-2.129-23.794-2.095-24.278l0.278-3.884c0,0,16.297,2.7,26.224,4.343"/>
	</g>
	<path style="fill:none;stroke:#FFFFFF;stroke-width:3.8727;stroke-linecap:round;stroke-linejoin:round;stroke-miterlimit:10;" d="
		M619.298,688.145c-1.851,10.809-6.123,37.214-5.224,45.863c1.844,17.765,11.271,26.883,23.021,28.831l1.211,0.2l1.21,0.2
		c11.75,1.947,23.613-3.647,31.088-19.868c3.738-8.114,8.51-35.411,10.177-45.935"/>
	<path style="fill:none;stroke:#FFFFFF;stroke-width:3.8727;stroke-linecap:round;stroke-linejoin:round;stroke-miterlimit:10;" d="
		M648.095,798.694l-30.55-5.06c-4.432-0.734-8.621,2.264-9.355,6.697l46.602,7.718C655.525,803.617,652.526,799.428,648.095,798.694
		z"/>
	
		<rect x="615.084" y="790.485" transform="matrix(0.1634 -0.9866 0.9866 0.1634 -280.7361 1305.1434)" style="fill:none;stroke:#FFFFFF;stroke-width:3.8727;stroke-linecap:round;stroke-linejoin:round;stroke-miterlimit:10;" width="28.206" height="55.236"/>
	
		<rect x="621.997" y="803.885" transform="matrix(0.1634 -0.9866 0.9866 0.1634 -301.0507 1317.3018)" style="fill:none;stroke:#FFFFFF;stroke-width:3.8727;stroke-linecap:round;stroke-linejoin:round;stroke-miterlimit:10;" width="8.397" height="64.549"/>
	<path style="fill:none;stroke:#FFFFFF;stroke-width:3.8727;stroke-linecap:round;stroke-linejoin:round;stroke-miterlimit:10;" d="
		M686.925,693.346c-0.427,2.574-2.858,4.314-5.433,3.89l-61.358-10.163c-2.573-0.426-4.313-2.858-3.887-5.433l0,0
		c0.426-2.574,2.858-4.314,5.432-3.889l61.358,10.162C685.61,688.34,687.352,690.772,686.925,693.346L686.925,693.346z"/>
</g>
<g style="display:inline;">
	<path style="fill:none;stroke:#FFFFFF;stroke-width:3.8727;stroke-linecap:round;stroke-linejoin:round;stroke-miterlimit:10;" d="
		M80.614,43.674l-53.881,94.064l164.939,94.483L80.614,43.674z M53.313,130.519L80.85,82.447l56.758,96.359L53.313,130.519z"/>
	
		<line style="fill:none;stroke:#FFFFFF;stroke-width:3.8727;stroke-linecap:round;stroke-linejoin:round;stroke-miterlimit:10;" x1="46.623" y1="137.47" x2="41.839" y2="145.488"/>
	
		<line style="fill:none;stroke:#FFFFFF;stroke-width:3.8727;stroke-linecap:round;stroke-linejoin:round;stroke-miterlimit:10;" x1="60.764" y1="145.228" x2="55.979" y2="153.247"/>
	
		<line style="fill:none;stroke:#FFFFFF;stroke-width:3.8727;stroke-linecap:round;stroke-linejoin:round;stroke-miterlimit:10;" x1="74.361" y1="152.975" x2="69.577" y2="160.994"/>
	
		<line style="fill:none;stroke:#FFFFFF;stroke-width:3.8727;stroke-linecap:round;stroke-linejoin:round;stroke-miterlimit:10;" x1="88.501" y1="160.734" x2="83.717" y2="168.752"/>
	
		<line style="fill:none;stroke:#FFFFFF;stroke-width:3.8727;stroke-linecap:round;stroke-linejoin:round;stroke-miterlimit:10;" x1="102.848" y1="169.886" x2="98.064" y2="177.904"/>
	
		<line style="fill:none;stroke:#FFFFFF;stroke-width:3.8727;stroke-linecap:round;stroke-linejoin:round;stroke-miterlimit:10;" x1="116.989" y1="177.644" x2="112.204" y2="185.662"/>
	
		<line style="fill:none;stroke:#FFFFFF;stroke-width:3.8727;stroke-linecap:round;stroke-linejoin:round;stroke-miterlimit:10;" x1="130.586" y1="185.391" x2="125.802" y2="193.409"/>
	
		<line style="fill:none;stroke:#FFFFFF;stroke-width:3.8727;stroke-linecap:round;stroke-linejoin:round;stroke-miterlimit:10;" x1="144.726" y1="193.149" x2="139.942" y2="201.167"/>
	
		<line style="fill:none;stroke:#FFFFFF;stroke-width:3.8727;stroke-linecap:round;stroke-linejoin:round;stroke-miterlimit:10;" x1="159.73" y1="201.941" x2="154.945" y2="209.959"/>
</g>
<g style="display:inline;">
	<g>
		<path style="fill:#FFFFFF;" d="M199.238,550.574l-1.038,44.967c0,0-5.298-1.177-9.788,2.138
			c-6.402,4.723-4.472,11.08-0.319,12.696c6.068,2.36,13.94-1.931,14.11-9.33c0.255-11.027,1.018-44.113,1.018-44.113l30.153-4.858
			l-0.287,37.155c0,0-4.67-1.248-9.719,1.625c-8.2,4.668-4.621,15.127,2.947,14.164c3.77-0.481,8.435-3.649,9.296-10.181
			c1.673-12.669,1.656-51.074,1.656-51.074L199.238,550.574z"/>
	</g>
</g>
<g style="display:inline;">
	<g>
		<g>
			
				<path style="fill:none;stroke:#FFFFFF;stroke-width:3.8727;stroke-linecap:round;stroke-linejoin:round;stroke-miterlimit:10;" d="
				M209.249,823.24c-0.073-3.7,1.293-7.516,4.858-9.183l0.735-0.345c4.007-1.877,8.652,0.465,11.41,3.661"/>
			
				<path style="fill:none;stroke:#FFFFFF;stroke-width:3.8727;stroke-linecap:round;stroke-linejoin:round;stroke-miterlimit:10;" d="
				M59.4,749.879c0.179-3.371,0.564-10.639,0.564-10.639s11.803-3.672,18.202-8.453c19.874-14.847,39.045-32.598,64.418-35.748
				c10.624-1.317,16.452,3.479,19.088,6.67"/>
			
				<path style="fill:none;stroke:#FFFFFF;stroke-width:3.8727;stroke-linecap:round;stroke-linejoin:round;stroke-miterlimit:10;" d="
				M265.319,654.763c-2.839-2.122-8.125-6.076-8.125-6.076s-9.779,9.524-17.549,11.376c-24.13,5.759-51.332,4.831-69.999,22.305
				c-7.428,6.954-7.838,14.118-7.206,18.302"/>
			
				<path style="fill:none;stroke:#FFFFFF;stroke-width:3.8727;stroke-linecap:round;stroke-linejoin:round;stroke-miterlimit:10;" d="
				M274.173,657.333l-4.813-3.94L180.039,702.8c-4.504-4.51-15.086-2.07-17.618-1.036l-0.735,0.346
				c-3.238,1.83-9.462,7.096-8.881,13.443l-96.907,36.051l-0.166,6.216"/>
			
				<path style="fill:none;stroke:#FFFFFF;stroke-width:3.8727;stroke-linecap:round;stroke-linejoin:round;stroke-miterlimit:10;" d="
				M159.68,719.54c-0.073-3.702,1.991-7.282,5.553-8.95l0.734-0.346c4.008-1.876,8.654-0.747,11.411,2.447"/>
		</g>
		
			<polygon style="fill:none;stroke:#FFFFFF;stroke-width:3.8727;stroke-linecap:round;stroke-linejoin:round;stroke-miterlimit:10;" points="
			227.286,819.185 316.694,767.396 274.173,657.333 177.684,712.44 		"/>
		
			<polygon style="fill:none;stroke:#FFFFFF;stroke-width:3.8727;stroke-linecap:round;stroke-linejoin:round;stroke-miterlimit:10;" points="
			113.048,860.955 210.77,826.92 160.538,720.469 55.732,757.82 		"/>
	</g>
	<g>
		
			<polygon style="fill:none;stroke:#FFFFFF;stroke-width:3.8727;stroke-linecap:round;stroke-linejoin:round;stroke-miterlimit:10;" points="
			203.066,731.261 210.128,746.347 279.378,707.514 272.096,691.961 		"/>
		
			<line style="fill:none;stroke:#FFFFFF;stroke-width:3.8727;stroke-linecap:round;stroke-linejoin:round;stroke-miterlimit:10;" x1="215.581" y1="756.478" x2="284.829" y2="717.643"/>
		
			<line style="fill:none;stroke:#FFFFFF;stroke-width:3.8727;stroke-linecap:round;stroke-linejoin:round;stroke-miterlimit:10;" x1="242.054" y1="764.101" x2="273.708" y2="745.822"/>
	</g>
</g>
<path style="display:inline;fill:#FFFFFF;" d="M406.169,79.759l-26.024-8.178c-1.278-0.401-2.64,0.31-3.043,1.588
	c-0.402,1.279,0.309,2.642,1.589,3.043l2.126,0.668l-25.653,81.64c-1.889,6.013,1.453,12.417,7.465,14.306
	c6.011,1.889,12.416-1.453,14.306-7.464l25.652-81.64l2.127,0.669c1.278,0.401,2.641-0.31,3.042-1.589
	C408.158,81.523,407.447,80.161,406.169,79.759z M383.935,128.141l-11.273,35.877c-1.146,3.648-5.045,5.682-8.692,4.535
	c-3.646-1.146-5.681-5.044-4.536-8.69l11.274-35.879l14.545-46.287l13.227,4.155L383.935,128.141z"/>
<g style="display:inline;">
	<path style="fill:none;stroke:#FFFFFF;stroke-width:3.8727;stroke-linecap:round;stroke-linejoin:round;stroke-miterlimit:10;" d="
		M110.005,452.517L74.668,435.56l1.023-2.132c0.894-1.863,0.107-4.108-1.751-5c-1.864-0.895-4.105-0.103-4.999,1.76l-10.235,21.33
		c-0.894,1.861-0.105,4.099,1.758,4.993c1.858,0.891,4.098,0.107,4.992-1.754l1.024-2.135l35.338,16.957
		c-2.244,14.095,4.848,28.567,18.375,35.059c16.491,7.913,36.277,0.957,44.191-15.534c7.912-16.49,0.958-36.276-15.533-44.189
		C135.325,438.424,119.597,441.949,110.005,452.517z"/>
	<path style="fill:none;stroke:#FFFFFF;stroke-width:3.8727;stroke-linecap:round;stroke-linejoin:round;stroke-miterlimit:10;" d="
		M144.057,450.721c-5.286-5.117-14.617-2.837-17.371,2.901c-1.019,2.125-1.374,4.392-1.168,6.579
		c-2.413,0.219-4.652,1.658-5.776,3.999c-0.852,1.775-0.9,3.728-0.292,5.447c-1.902,0.943-3.519,2.496-4.509,4.558
		c-2.112,4.402-0.657,9.585,3.206,12.308c-3.846,3.777-0.079,10.185,3.66,11.98c0,0-3.249,5.36-1.613,6.146
		c16.491,7.913,36.277,0.957,44.191-15.534c7.912-16.49,0.958-36.276-15.533-44.189C147.215,444.13,144.057,450.721,144.057,450.721
		z"/>
</g>
<g style="display:inline;">
	<g>
		
			<path style="fill:none;stroke:#FFFFFF;stroke-width:3.8727;stroke-linecap:round;stroke-linejoin:round;stroke-miterlimit:10;" d="
			M485.653,82.157c1.951,8.176,6.173,15.913,12.65,22.201c18.165,17.636,47.19,17.206,64.826-0.958
			c0.637-0.656,1.25-1.328,1.842-2.011"/>
		
			<path style="fill:none;stroke:#FFFFFF;stroke-width:3.8727;stroke-linecap:round;stroke-linejoin:round;stroke-miterlimit:10;" d="
			M573.432,86.852c5.821-16.379,2.022-35.372-11.267-48.273c-18.163-17.634-47.18-17.205-64.816,0.959
			c-7.558,7.786-11.799,17.567-12.747,27.59"/>
		
			<path style="fill:none;stroke:#FFFFFF;stroke-width:3.8727;stroke-linecap:round;stroke-linejoin:round;stroke-miterlimit:10;" d="
			M492.558,45.369c-2.651,3.815-4.651,7.941-6.007,12.225c-8.15-0.279-13.229,0.498-13.651,2.455
			c-0.432,1.971,3.956,4.822,11.63,7.989c1.233,0.509,2.539,1.026,3.936,1.547c10.317,3.865,24.929,8.046,41.326,11.611
			c12.535,2.723,24.268,4.683,34.008,5.799c3.346,0.383,6.434,0.66,9.262,0.84c10.248,0.655,16.787-0.038,17.27-2.265
			c0.482-2.209-5.081-5.521-14.535-9.143c0.489-4.513,0.307-9.076-0.538-13.539c27.555,9.587,45.421,20.807,43.664,28.894
			c-1.777,8.174-23.138,10.93-52.684,8.067c-2.38-0.229-4.804-0.49-7.284-0.796c-9.987-1.222-20.727-3.032-31.858-5.45
			c-14.449-3.142-27.881-6.943-39.56-11.029c-0.653-0.229-1.291-0.455-1.932-0.687c-26.203-9.399-43.006-20.203-41.296-28.055
			C445.995,46.072,465.324,43.19,492.558,45.369z"/>
	</g>
</g>
<g style="display:inline;">
	<path style="fill:none;stroke:#FFFFFF;stroke-width:3.8727;stroke-linecap:round;stroke-linejoin:round;stroke-miterlimit:10;" d="
		M733.563,615.128c-2.06-4.778-10.533-5.678-15.333-7.507c-3.221-1.237-8.326-2.657-12.11-5.054
		c-3.39,23.431,5.468,45.809,22.112,60.898c0.629-5.802-0.96-13.067-0.996-17.59C727.122,635.462,738.166,625.747,733.563,615.128z"
		/>
	<path style="fill:none;stroke:#FFFFFF;stroke-width:3.8727;stroke-linecap:round;stroke-linejoin:round;stroke-miterlimit:10;" d="
		M838.551,622.561c-1.205,0.72-0.575,1.584-1.109,2.601c-1.172,2.24-1.653,4.977-2.849,7.143c-3.281,5.996-6.515,3.976-13.149,5.69
		c-7.018,1.816-6.805,6.185-4.228,11.824c2.373,5.181,3.489,10.171,4.025,15.875c0.064,0.741,0.253,1.851,0.473,3.087
		c15.052-10.5,26.073-26.382,29.64-45.279C846.875,622.484,840.746,621.231,838.551,622.561z"/>
	<g>
		<g>
			
				<path style="fill:none;stroke:#FFFFFF;stroke-width:3.8727;stroke-linecap:round;stroke-linejoin:round;stroke-miterlimit:10;" d="
				M821.933,553.598c-7.249,1.601-14.394,2.505-15.965,2.617c-9.94,0.756-30.443-3.18-30.987,11.109
				c-0.23,5.809,3.104,11.675,2.085,17.36c-0.579,3.205-1.494,3.537-4.607,4.43c-2.955,0.848-6.003,1.06-9.058,1.263
				c-1.153,0.074-4.479-0.075-7.018,0.245c-1.224,0.153-2.284,0.413-2.773,0.892c-2.047,1.953-0.532,6.296,0.605,8.248
				c3.144,5.429,10.104,7.753,16.152,9.797c0.893,0.301,1.754,0.591,2.589,0.892c8.73,3.08,13.998,5.222,12.369,14.812
				c-0.205,1.223-0.369,2.453-0.685,3.615c-0.352,1.284-0.921,2.466-2.037,3.448c-2.399,2.071-6.328,1.319-8.728,3.096
				c-6.375,4.731-0.498,15.031,4.928,18.003c3.62,1.972,7.838,2.165,10.361,5.646c2.414,3.349,1.933,7.308,2.895,11.004
				c0.929,3.655,3.249,7.149,6.393,9.56c6.377-1.768,12.457-4.31,18.085-7.57c1.775-1.024,3.493-2.105,5.176-3.284
				c-0.219-1.236-0.408-2.347-0.473-3.087c-0.537-5.705-1.653-10.695-4.025-15.875c-2.577-5.639-2.79-10.007,4.228-11.824
				c6.634-1.714,9.869,0.306,13.149-5.69c1.196-2.165,1.677-4.902,2.849-7.143c0.535-1.017-0.095-1.881,1.109-2.601
				c2.194-1.33,8.324-0.077,12.802,0.941c0.044-0.235,0.118-0.454,0.16-0.671C856.467,595.157,844.051,568.713,821.933,553.598z"/>
			
				<path style="fill:none;stroke:#FFFFFF;stroke-width:3.8727;stroke-linecap:round;stroke-linejoin:round;stroke-miterlimit:10;" d="
				M759.903,556.789c0.653-2.727-0.495-6.763-1.749-9.175c-0.585-1.106-1.248-2.17-1.945-3.216
				c-8.891,2.891-17.082,7.425-24.21,13.211c-5.237,4.239-9.912,9.138-13.802,14.646c4.078-1.371,8.567-1.685,12.408-4.012
				c2.108-1.26,4.604-2.161,7.131-2.872c1.662-0.467,3.354-0.884,4.933-1.188C748.362,563.058,758.195,563.878,759.903,556.789z"/>
		</g>
		
			<path style="fill:none;stroke:#FFFFFF;stroke-width:3.8727;stroke-linecap:round;stroke-linejoin:round;stroke-miterlimit:10;" d="
			M791.487,541.561c-12.219-1.901-24.242-0.741-35.277,2.837c0.697,1.045,1.36,2.109,1.945,3.216
			c1.254,2.412,2.402,6.448,1.749,9.175c-1.708,7.09-11.542,6.27-17.233,7.395c-1.578,0.305-3.271,0.722-4.933,1.188
			c-2.527,0.711-5.023,1.611-7.131,2.872c-3.841,2.327-8.331,2.641-12.408,4.012c-5.778,8.209-9.937,17.65-11.791,28.018
			c-0.139,0.775-0.177,1.54-0.288,2.294c3.785,2.397,8.89,3.817,12.11,5.054c4.8,1.83,13.273,2.729,15.333,7.507
			c4.604,10.618-6.44,20.333-6.328,30.747c0.036,4.522,1.625,11.788,0.996,17.59c10.203,9.25,23.287,15.74,38.207,18.062
			c11.045,1.717,21.889,0.898,32.015-1.892c-3.144-2.411-5.464-5.905-6.393-9.56c-0.962-3.696-0.48-7.655-2.895-11.004
			c-2.522-3.481-6.741-3.674-10.361-5.646c-5.426-2.972-11.303-13.273-4.928-18.003c2.399-1.777,6.329-1.025,8.728-3.096
			c1.115-0.982,1.684-2.164,2.037-3.448c0.315-1.162,0.48-2.392,0.685-3.615c1.629-9.59-3.639-11.732-12.369-14.812
			c-0.835-0.301-1.696-0.59-2.589-0.892c-6.047-2.043-13.008-4.368-16.152-9.797c-1.137-1.952-2.652-6.295-0.605-8.248
			c0.489-0.479,1.549-0.738,2.773-0.892c2.539-0.32,5.865-0.171,7.018-0.245c3.054-0.203,6.103-0.415,9.058-1.263
			c3.113-0.893,4.028-1.225,4.607-4.43c1.019-5.685-2.315-11.551-2.085-17.36c0.544-14.289,21.047-10.353,30.987-11.109
			c1.571-0.112,8.716-1.017,15.965-2.617C813.147,547.593,802.872,543.33,791.487,541.561z"/>
	</g>
</g>
<g style="display:inline;">
	<path style="fill:none;stroke:#FFFFFF;stroke-width:3.8727;stroke-linecap:round;stroke-linejoin:round;stroke-miterlimit:10;" d="
		M219.063,118.823c-25.563,15.447-33.745,48.68-18.299,74.241c14.218,23.516,43.472,32.288,67.977,21.505l6.007-3.625l6.011-3.633
		c20.94-16.689,26.778-46.67,12.561-70.191C277.866,111.559,244.618,103.372,219.063,118.823z M269.253,201.848
		c-20.294,12.264-46.695,5.753-58.958-14.54c-12.263-20.291-5.768-46.687,14.532-58.953c20.292-12.267,46.697-5.76,58.958,14.537
		C296.056,163.185,289.543,189.58,269.253,201.848z"/>
	<path style="fill:none;stroke:#FFFFFF;stroke-width:3.8727;stroke-linecap:round;stroke-linejoin:round;stroke-miterlimit:10;" d="
		M294.603,212.872l-2.22-3.686c-2.178-3.597-6.855-4.762-10.465-2.58l-1.159,0.704l-6.011,3.633l-6.007,3.625l-1.159,0.703
		c-3.602,2.172-4.761,6.872-2.588,10.471l2.237,3.692c2.169,3.588,6.86,4.749,10.469,2.57c-3.609,2.179-4.767,6.863-2.59,10.471
		l28.81,47.659c2.171,3.599,6.86,4.744,10.477,2.573l7.159-4.328l7.173-4.342c3.605-2.178,4.75-6.857,2.569-10.456l-28.811-47.665
		c-2.177-3.596-6.846-4.763-10.456-2.579C295.64,221.153,296.789,216.476,294.603,212.872z"/>
</g>
<g style="display:inline;">
	<path style="fill:none;stroke:#FFFFFF;stroke-width:3.8727;stroke-linecap:round;stroke-linejoin:round;stroke-miterlimit:10;" d="
		M666.851,190.614c-0.282,12.759-1.293,58.364-1.805,81.481"/>
	<path style="fill:none;stroke:#FFFFFF;stroke-width:3.8727;stroke-linecap:round;stroke-linejoin:round;stroke-miterlimit:10;" d="
		M672.801,274.97c0.462-20.847,1.454-65.62,1.81-81.683"/>
	<path style="fill:none;stroke:#FFFFFF;stroke-width:3.8727;stroke-linecap:round;stroke-linejoin:round;stroke-miterlimit:10;" d="
		M764.859,136.89c-17.489,7.405-64.339,27.238-79.361,33.599"/>
	<path style="fill:none;stroke:#FFFFFF;stroke-width:3.8727;stroke-linecap:round;stroke-linejoin:round;stroke-miterlimit:10;" d="
		M688.126,177.865c14.588-6.176,62.39-26.413,79.928-33.838"/>
	<path style="fill:none;stroke:#FFFFFF;stroke-width:3.8727;stroke-linecap:round;stroke-linejoin:round;stroke-miterlimit:10;" d="
		M662.447,174.706c-2.61,6.863,0.836,14.544,7.7,17.156c6.866,2.613,14.546-0.835,17.158-7.698
		c2.612-6.865-0.834-14.544-7.701-17.157C672.739,164.396,665.059,167.842,662.447,174.706z M669.442,177.368
		c1.142-3.001,4.5-4.508,7.5-3.366c3,1.142,4.505,4.498,3.363,7.499c-1.141,2.999-4.498,4.508-7.497,3.366
		C669.808,183.725,668.301,180.367,669.442,177.368z"/>
	<path style="fill:none;stroke:#FFFFFF;stroke-width:3.8727;stroke-linecap:round;stroke-linejoin:round;stroke-miterlimit:10;" d="
		M637.767,280.272l2.449-6.438c2.039-5.357,8.033-8.046,13.389-6.008l33.229,12.643c5.358,2.04,8.048,8.032,6.009,13.39
		l-2.449,6.438L637.767,280.272z"/>
	<path style="fill:none;stroke:#FFFFFF;stroke-width:3.8727;stroke-linecap:round;stroke-linejoin:round;stroke-miterlimit:10;" d="
		M778.14,147.847c-2.706-6.217-9.608-21.987-9.608-21.987l-6.643,2.892c0,0,6.973,15.936,9.658,22.104"/>
	
		<polygon style="fill:none;stroke:#FFFFFF;stroke-width:3.8727;stroke-linecap:round;stroke-linejoin:round;stroke-miterlimit:10;" points="
		771.264,195.898 811.317,179.934 786.671,146.102 765.404,155.383 	"/>
</g>
<g style="display:inline;">
	
		<polygon style="fill:none;stroke:#FFFFFF;stroke-width:3.8727;stroke-linecap:round;stroke-linejoin:round;stroke-miterlimit:10;" points="
		863.154,469.387 857.855,458.239 842.132,460.587 851.402,480.097 	"/>
	
		<polygon style="fill:none;stroke:#FFFFFF;stroke-width:3.8727;stroke-linecap:round;stroke-linejoin:round;stroke-miterlimit:10;" points="
		875.538,457.183 857.937,458.404 863.074,469.211 	"/>
	
		<polygon style="fill:none;stroke:#FFFFFF;stroke-width:3.8727;stroke-linecap:round;stroke-linejoin:round;stroke-miterlimit:10;" points="
		784.215,496.201 784.216,496.198 787.225,502.531 790.356,509.121 851.405,480.096 848.269,473.508 845.259,467.177 
		845.263,467.174 842.132,460.587 781.083,489.613 	"/>
	
		<line style="fill:none;stroke:#FFFFFF;stroke-width:3.8727;stroke-linecap:round;stroke-linejoin:round;stroke-miterlimit:10;" x1="845.412" y1="471.424" x2="787.073" y2="499.332"/>
</g>
<g style="display:inline;">
	<path style="fill:none;stroke:#FFFFFF;stroke-width:3.8727;stroke-linecap:round;stroke-linejoin:round;stroke-miterlimit:10;" d="
		M135.322,256.426c5.573-1.904,9.061-3.095,9.061-3.095c4.855-1.658,10.135,0.934,11.794,5.789l25.77,75.449
		c1.658,4.854-0.934,10.135-5.788,11.793l-86.304,29.477c-4.853,1.659-10.134-0.934-11.793-5.788l-25.769-75.449
		c-1.658-4.854,0.934-10.135,5.789-11.793c0,0,3.305-1.129,8.621-2.945"/>
	<path style="fill:none;stroke:#FFFFFF;stroke-width:3.8727;stroke-linecap:round;stroke-linejoin:round;stroke-miterlimit:10;" d="
		M80.244,275.238c13.037-4.453,29.454-10.06,42.414-14.487"/>
	<g>
		
			<path style="fill:none;stroke:#FFFFFF;stroke-width:3.8727;stroke-linecap:round;stroke-linejoin:round;stroke-miterlimit:10;" d="
			M81.112,280.135c1.17,3.425-0.657,7.149-4.084,8.32l0,0c-3.425,1.169-7.15-0.659-8.319-4.084l-3.708-10.854
			c-1.17-3.424,0.658-7.151,4.083-8.32l0,0c3.426-1.171,7.151,0.658,8.321,4.083L81.112,280.135z"/>
		
			<path style="fill:none;stroke:#FFFFFF;stroke-width:3.8727;stroke-linecap:round;stroke-linejoin:round;stroke-miterlimit:10;" d="
			M136.931,261.069c1.17,3.426-0.659,7.151-4.084,8.32l0,0c-3.425,1.17-7.151-0.657-8.321-4.083l-3.706-10.853
			c-1.17-3.425,0.659-7.151,4.083-8.321l0,0c3.425-1.17,7.151,0.659,8.32,4.083L136.931,261.069z"/>
	</g>
	<g>
		<path style="fill:#FFFFFF;" d="M93.4,306.452c1.018-0.64,2.168-1.105,3.079-1.416c0.977-0.334,2.041-0.625,3.302-0.764
			l11.01,32.234c0.534,1.564,0.914,2.888,1.425,4.385c0.977-0.333,2.973-1.088,3.82-1.377l4.493-1.535
			c0.507,0.846,0.905,1.8,1.239,2.776c0.312,0.913,0.58,1.912,0.696,2.89l-24.55,8.386c-0.53-0.911-0.906-1.8-1.217-2.712
			c-0.334-0.976-0.603-1.975-0.719-2.954l5.991-2.045c0.847-0.29,2.821-0.891,3.734-1.204c-0.511-1.497-1.02-2.776-1.555-4.34
			l-5.071-14.846c-0.556-1.628-1.562-5.212-2.366-7.991c-1.43,3.906-4.209,7.69-6.975,10.236c-1.7-0.292-3.34-1.478-4.244-3.059
			C90.474,317.049,92.998,311.024,93.4,306.452z"/>
		<path style="fill:#FFFFFF;" d="M141.894,293.015c0.667,1.953-0.018,3.35-1.973,4.018l-11.265,3.848l-2.475,0.845l1.112,3.256
			l1.297,4.648l0.382,1.76c1.514-1.317,3.247-2.418,5.33-3.128c7.944-2.714,14.977,0.628,17.846,9.029
			c3.604,10.549-2.24,17.925-9.664,20.461c-5.144,1.757-10.042,1.466-13.665,0.013c-0.207-1.457,0.296-4.028,1.33-5.472
			c3.228,0.934,6.474,1.28,9.99,0.08c4.363-1.491,7.335-5.778,5.11-12.289c-2.247-6.577-7.146-7.086-10.924-5.795
			c-2.539,0.867-4.809,2.733-6.401,5.313c-1.304,0.227-3.115-0.391-4.035-1.167l-5.784-19.913l0.3-0.611l22.076-7.54
			C141.141,291.235,141.65,292.298,141.894,293.015z"/>
	</g>
</g>
<g style="display:inline;">
	<path style="fill:none;stroke:#FFFFFF;stroke-width:2.6648;stroke-linecap:round;stroke-linejoin:round;stroke-miterlimit:10;" d="
		M788.582,749.965c1.608,3.891-0.242,8.346-4.128,9.953l-16.97,7.016c-3.888,1.608-8.346-0.242-9.953-4.131l-7.015-16.968
		c-1.608-3.89,0.241-8.346,4.13-9.953l16.968-7.017c3.889-1.607,8.346,0.242,9.952,4.131L788.582,749.965z"/>
	<path style="fill:#FFFFFF;" d="M764.312,740.354c0.529-0.355,1.091-0.633,1.746-0.902c0.654-0.269,1.286-0.486,1.872-0.593
		l1.956,4.734c0.239,0.574,0.487,1.284,0.743,1.9c0.577-0.238,1.253-0.563,1.869-0.817l4.389-1.814
		c0.353,0.53,0.583,0.975,0.853,1.63c0.271,0.654,0.472,1.247,0.562,1.795l-4.387,1.814c-0.615,0.255-1.324,0.503-1.9,0.741
		c0.254,0.616,0.579,1.294,0.801,1.833l1.973,4.771c-0.491,0.339-1.091,0.632-1.707,0.887c-0.692,0.287-1.285,0.486-1.911,0.61
		l-1.973-4.772c-0.223-0.539-0.472-1.248-0.726-1.864c-0.616,0.256-1.292,0.579-1.87,0.819l-4.388,1.813
		c-0.322-0.452-0.599-1.014-0.87-1.669c-0.27-0.654-0.438-1.169-0.546-1.755l4.388-1.815c0.578-0.239,1.286-0.486,1.902-0.739
		c-0.255-0.616-0.58-1.295-0.818-1.872L764.312,740.354z"/>
	<path style="fill:none;stroke:#FFFFFF;stroke-width:2.6648;stroke-linecap:round;stroke-linejoin:round;stroke-miterlimit:10;" d="
		M827.336,733.943c1.607,3.888-0.243,8.345-4.132,9.953l-16.968,7.016c-3.888,1.607-8.344-0.243-9.952-4.132l-7.017-16.969
		c-1.606-3.887,0.243-8.344,4.131-9.952l16.968-7.015c3.889-1.608,8.345,0.241,9.954,4.129L827.336,733.943z"/>
	<path style="fill:#FFFFFF;" d="M804.237,735.565c-0.376-0.476-0.686-1.115-0.892-1.615c-0.223-0.538-0.455-1.208-0.524-1.811
		l9.546-3.947c0.377,0.477,0.685,1.114,0.908,1.654c0.206,0.499,0.438,1.169,0.507,1.771L804.237,735.565z"/>
	<path style="fill:none;stroke:#FFFFFF;stroke-width:2.6648;stroke-linecap:round;stroke-linejoin:round;stroke-miterlimit:10;" d="
		M803.952,787.139c1.608,3.89-0.243,8.347-4.13,9.955l-16.97,7.014c-3.887,1.608-8.345-0.241-9.952-4.13l-7.015-16.968
		c-1.607-3.889,0.242-8.346,4.13-9.954l16.969-7.016c3.889-1.608,8.346,0.242,9.955,4.131L803.952,787.139z"/>
	<path style="fill:none;stroke:#FFFFFF;stroke-width:2.6648;stroke-linecap:round;stroke-linejoin:round;stroke-miterlimit:10;" d="
		M842.706,771.118c1.608,3.89-0.242,8.347-4.131,9.954l-16.968,7.015c-3.889,1.608-8.346-0.243-9.953-4.131l-7.015-16.969
		c-1.608-3.888,0.242-8.344,4.129-9.952l16.969-7.015c3.889-1.608,8.346,0.242,9.953,4.13L842.706,771.118z"/>
	<g>
		<path style="fill:#FFFFFF;" d="M821.785,778.553c-0.688-0.03-1.308-0.225-1.892-0.435c-0.543-0.227-1.135-0.566-1.605-1.048
			l2.251-5.348c0.187-0.528,0.45-1.089,0.677-1.633l-1.648-0.715l-5.37-2.198c0.008-0.635,0.111-1.261,0.38-1.914
			c0.249-0.601,0.605-1.151,1.049-1.605l5.385,2.234c0.506,0.242,1.083,0.545,1.627,0.771c0.264-0.56,0.496-1.199,0.699-1.688
			l2.18-5.407c0.635,0.009,1.278,0.147,1.877,0.396c0.598,0.248,1.152,0.606,1.66,1.072l-2.25,5.347
			c-0.189,0.528-0.513,1.157-0.739,1.703c0.528,0.186,1.204,0.403,1.693,0.606l5.385,2.236c-0.031,0.688-0.148,1.277-0.396,1.875
			c-0.249,0.599-0.628,1.206-1.087,1.622l-5.347-2.25l-1.671-0.663l-0.639,1.618L821.785,778.553z"/>
	</g>
	<g>
		<path style="fill:#FFFFFF;" d="M777.559,790.057c-0.323-0.453-0.632-1.091-0.854-1.631c-0.221-0.539-0.439-1.169-0.562-1.794
			l16.087-6.651c0.355,0.529,0.648,1.129,0.872,1.668c0.223,0.538,0.454,1.209,0.545,1.757L777.559,790.057z M779.401,777.397
			c0.351-0.46,1.079-0.988,1.809-1.291c0.695-0.285,1.659-0.458,2.194-0.365c0.368,0.345,0.807,0.973,1.031,1.513
			c0.223,0.539,0.355,1.294,0.321,1.76c-0.273,0.428-1.118,1.002-1.811,1.287c-0.73,0.303-1.642,0.501-2.192,0.366
			c-0.351-0.305-0.792-0.934-1.015-1.473C779.516,778.656,779.383,777.899,779.401,777.397z M785.08,791.136
			c0.353-0.459,1.081-0.985,1.812-1.288c0.692-0.287,1.659-0.46,2.193-0.366c0.351,0.308,0.807,0.974,1.014,1.474
			c0.239,0.576,0.355,1.295,0.337,1.798c-0.273,0.428-1.117,1.003-1.809,1.289c-0.732,0.303-1.659,0.459-2.193,0.366
			c-0.368-0.344-0.791-0.935-1.031-1.511C785.18,792.357,785.048,791.603,785.08,791.136z"/>
	</g>
</g>
<g style="display:inline;">
	<path style="fill:none;stroke:#FFFFFF;stroke-width:3.8727;stroke-linecap:round;stroke-linejoin:round;stroke-miterlimit:10;" d="
		M287.158,403.424c7.427,27.099-8.522,55.087-35.621,62.514c-27.098,7.427-55.086-8.521-62.513-35.622
		c-7.426-27.098,8.521-55.085,35.62-62.512C251.743,360.378,279.732,376.325,287.158,403.424z"/>
	<g>
		<path style="fill:#FFFFFF;" d="M206.828,425.438c0.432,1.575-0.495,3.203-2.071,3.634c-1.575,0.433-3.203-0.495-3.635-2.071
			c-0.432-1.575,0.496-3.202,2.071-3.634C204.77,422.935,206.396,423.863,206.828,425.438z"/>
		<path style="fill:#FFFFFF;" d="M275.058,406.74c0.432,1.576-0.496,3.204-2.072,3.636c-1.576,0.431-3.203-0.497-3.634-2.072
			c-0.433-1.576,0.495-3.203,2.071-3.635C272.999,404.236,274.626,405.164,275.058,406.74z"/>
	</g>
	<g>
		<path style="fill:#FFFFFF;" d="M229.522,385.609c-1.575,0.432-3.202-0.496-3.634-2.071c-0.432-1.576,0.496-3.204,2.071-3.635
			c1.577-0.431,3.204,0.496,3.636,2.072C232.025,383.549,231.099,385.177,229.522,385.609z"/>
		<path style="fill:#FFFFFF;" d="M248.221,453.838c-1.576,0.432-3.203-0.496-3.635-2.071c-0.432-1.576,0.496-3.204,2.069-3.635
			c1.577-0.433,3.205,0.495,3.636,2.071C250.723,451.779,249.796,453.406,248.221,453.838z"/>
	</g>
	<path style="fill:#FFFFFF;" d="M259.62,387.069c-0.149-0.65-0.541-1.202-1.104-1.555c-0.398-0.25-0.855-0.382-1.321-0.382
		c-0.866,0-1.657,0.437-2.117,1.17l-17.702,28.247l-19.345-6.906c-0.272-0.098-0.555-0.147-0.838-0.147
		c-1.051,0-1.995,0.666-2.349,1.657c-0.224,0.627-0.19,1.304,0.095,1.905c0.285,0.603,0.788,1.057,1.416,1.281l21.032,7.509
		c0.323,0.146,0.663,0.244,1.017,0.244c0.124,0,0.241-0.027,0.361-0.046c0.032-0.004,0.064-0.007,0.097-0.012
		c0.102-0.019,0.2-0.04,0.297-0.071c0.143-0.043,0.283-0.098,0.416-0.165c0.035-0.018,0.066-0.04,0.1-0.061
		c0.43-0.245,0.783-0.613,1.005-1.069l18.624-29.72C259.658,388.388,259.77,387.72,259.62,387.069z"/>
</g>
<g style="display:inline;">
	<g>
		
			<path style="fill:none;stroke:#FFFFFF;stroke-width:3.8727;stroke-linecap:round;stroke-linejoin:round;stroke-miterlimit:10;" d="
			M37.142,640.66l1.79,4.299c1.203,2.886,4.517,4.251,7.402,3.048l2.955-1.233c1.706,2.225,3.673,4.178,5.855,5.835l-1.218,2.956
			c-1.191,2.891,0.188,6.199,3.081,7.39l4.306,1.771c2.89,1.191,6.2-0.188,7.389-3.081l1.216-2.954
			c2.714,0.36,5.488,0.357,8.266-0.022l1.232,2.953c1.203,2.885,4.517,4.251,7.402,3.049l4.297-1.792
			c2.886-1.203,4.251-4.519,3.049-7.403l-1.233-2.954c2.225-1.705,4.18-3.674,5.835-5.854l2.955,1.216
			c2.892,1.191,6.2-0.189,7.391-3.08l1.771-4.306c1.191-2.891-0.188-6.2-3.08-7.39l-2.955-1.216
			c0.362-2.715,0.357-5.489-0.021-8.264l2.954-1.233c2.885-1.202,4.25-4.517,3.047-7.405l-1.791-4.296
			c-1.203-2.885-4.518-4.25-7.403-3.047l-2.955,1.231c-1.706-2.224-3.675-4.179-5.856-5.836l1.216-2.953
			c1.192-2.892-0.187-6.2-3.079-7.39l-4.305-1.773c-2.893-1.189-6.199,0.19-7.39,3.081l-1.215,2.955
			c-2.715-0.361-5.489-0.357-8.266,0.022l-1.232-2.955c-1.203-2.883-4.517-4.251-7.402-3.046l-4.298,1.792
			c-2.886,1.202-4.25,4.517-3.046,7.403l1.23,2.955c-2.224,1.703-4.18,3.673-5.834,5.854l-2.955-1.217
			c-2.891-1.189-6.202,0.19-7.391,3.079l-1.771,4.305c-1.191,2.893,0.188,6.202,3.081,7.391l2.955,1.217
			c-0.36,2.714-0.357,5.488,0.023,8.265l-2.954,1.232C37.301,634.46,35.939,637.774,37.142,640.66z M54.47,635.961
			c-4.494-10.778,0.603-23.158,11.378-27.648c10.779-4.494,23.156,0.603,27.65,11.379c4.49,10.777-0.602,23.155-11.381,27.648
			C71.339,651.831,58.961,646.737,54.47,635.961z"/>
		
			<path style="fill:none;stroke:#FFFFFF;stroke-width:3.8727;stroke-linecap:round;stroke-linejoin:round;stroke-miterlimit:10;" d="
			M104.259,570.778l-0.088,3.696c-0.061,2.475,1.901,4.537,4.379,4.596l2.54,0.06c0.518,2.165,1.313,4.216,2.36,6.12l-1.836,1.749
			c-1.797,1.71-1.865,4.555-0.154,6.351l2.55,2.674c1.711,1.796,4.556,1.864,6.351,0.152l1.834-1.748
			c1.852,1.135,3.864,2.029,5.997,2.651l-0.06,2.539c-0.059,2.479,1.901,4.538,4.382,4.6l3.691,0.088
			c2.48,0.058,4.538-1.904,4.597-4.38l0.063-2.54c2.166-0.518,4.214-1.314,6.121-2.36l1.747,1.835
			c1.713,1.797,4.556,1.864,6.351,0.154l2.675-2.55c1.795-1.711,1.863-4.555,0.153-6.349l-1.747-1.834
			c1.136-1.852,2.029-3.863,2.649-5.998l2.54,0.06c2.479,0.06,4.538-1.903,4.599-4.381l0.09-3.693
			c0.059-2.479-1.904-4.539-4.384-4.598l-2.538-0.063c-0.518-2.163-1.314-4.214-2.36-6.118l1.835-1.751
			c1.797-1.709,1.865-4.552,0.155-6.349l-2.549-2.674c-1.711-1.794-4.554-1.866-6.35-0.153l-1.837,1.75
			c-1.85-1.137-3.86-2.031-5.996-2.652l0.06-2.54c0.061-2.478-1.901-4.536-4.382-4.597l-3.692-0.089
			c-2.48-0.06-4.538,1.901-4.598,4.382l-0.062,2.539c-2.163,0.516-4.214,1.312-6.117,2.359l-1.75-1.836
			c-1.713-1.795-4.557-1.864-6.351-0.156l-2.673,2.551c-1.797,1.71-1.864,4.553-0.154,6.351l1.75,1.834
			c-1.138,1.852-2.03,3.865-2.651,5.999l-2.541-0.061C106.377,566.336,104.319,568.297,104.259,570.778z M118.335,572.965
			c0.225-9.261,7.913-16.589,17.173-16.365c9.263,0.224,16.588,7.913,16.365,17.174c-0.222,9.261-7.911,16.589-17.172,16.363
			C125.438,589.916,118.113,582.225,118.335,572.965z"/>
	</g>
</g>
<g style="display:inline;">
	<path style="fill:none;stroke:#FFFFFF;stroke-width:3.8727;stroke-linecap:round;stroke-linejoin:round;stroke-miterlimit:10;" d="
		M331.926,95.552c0,0-0.608-4.993,0.38-8.132c2.132-6.78,15.327-16.055,14.988-28.922c-0.337-12.77-8.31-33.46-33.567-29.625
		c-23.678,3.595-29.349,25.602-24.958,37.703c5.553,15.307,18.14,14.854,23.581,22.258c0.974,1.328,2.681,9.283,2.681,9.283
		L331.926,95.552z"/>
	<path style="fill:none;stroke:#FFFFFF;stroke-width:3.8727;stroke-linecap:round;stroke-linejoin:round;stroke-miterlimit:10;" d="
		M336.008,98.969c0.331,2.18-1.167,4.214-3.347,4.545l-16.575,2.517c-2.181,0.331-4.215-1.167-4.546-3.347l0,0
		c-0.331-2.179,1.168-4.215,3.348-4.545l16.575-2.517C333.641,95.291,335.677,96.789,336.008,98.969L336.008,98.969z"/>
	<path style="fill:none;stroke:#FFFFFF;stroke-width:3.8727;stroke-linecap:round;stroke-linejoin:round;stroke-miterlimit:10;" d="
		M337.207,106.862c0.331,2.179-1.168,4.214-3.348,4.545l-16.575,2.517c-2.179,0.331-4.214-1.167-4.545-3.347l0,0
		c-0.331-2.18,1.167-4.215,3.348-4.546l16.575-2.517C334.841,103.183,336.875,104.682,337.207,106.862L337.207,106.862z"/>
	<path style="fill:none;stroke:#FFFFFF;stroke-width:3.8727;stroke-linecap:round;stroke-linejoin:round;stroke-miterlimit:10;" d="
		M326.53,118.98c4.359-0.661,7.465-4.025,6.935-7.512l-15.787,2.396C318.208,117.351,322.171,119.643,326.53,118.98z"/>
	
		<polyline style="fill:none;stroke:#FFFFFF;stroke-width:3.8727;stroke-linecap:round;stroke-linejoin:round;stroke-miterlimit:10;" points="
		321.622,96.319 304.883,56.783 314.439,60.712 316.847,51.123 321.237,59.116 329.646,51.775 325.663,96.276 	"/>
</g>
<g style="display:inline;">
	<path style="fill:none;stroke:#FFFFFF;stroke-width:3.8727;stroke-linecap:round;stroke-linejoin:round;stroke-miterlimit:10;" d="
		M753.901,240.932h66.085c6.535,0,11.833,5.298,11.833,11.833v42.429c0,6.535-5.298,11.833-11.833,11.833h-40.695l-19.481,19.481
		v-19.481h-5.909c-6.535,0-11.833-5.298-11.833-11.833v-42.429C742.068,246.23,747.366,240.932,753.901,240.932z"/>
	<g>
		
			<path style="fill:none;stroke:#FFFFFF;stroke-width:3.8727;stroke-linecap:round;stroke-linejoin:round;stroke-miterlimit:10;" d="
			M803.294,274.707c0,4.052,3.285,7.336,7.336,7.336c4.051,0,7.336-3.284,7.336-7.336c0-4.052-3.285-7.336-7.336-7.336
			C806.579,267.371,803.294,270.655,803.294,274.707z"/>
		
			<path style="fill:none;stroke:#FFFFFF;stroke-width:3.8727;stroke-linecap:round;stroke-linejoin:round;stroke-miterlimit:10;" d="
			M779.608,274.707c0,4.052,3.284,7.336,7.336,7.336c4.051,0,7.336-3.284,7.336-7.336c0-4.052-3.284-7.336-7.336-7.336
			C782.892,267.371,779.608,270.655,779.608,274.707z"/>
		
			<path style="fill:none;stroke:#FFFFFF;stroke-width:3.8727;stroke-linecap:round;stroke-linejoin:round;stroke-miterlimit:10;" d="
			M755.922,274.707c0,4.052,3.284,7.336,7.335,7.336c4.052,0,7.336-3.284,7.336-7.336c0-4.052-3.285-7.336-7.336-7.336
			C759.206,267.371,755.922,270.655,755.922,274.707z"/>
	</g>
</g>
<polygon style="display:inline;fill:none;stroke:#FFFFFF;stroke-width:3.8727;stroke-linecap:round;stroke-linejoin:round;stroke-miterlimit:10;" points="
	707.345,32.275 723.727,56.962 750.918,52.648 734.599,76.925 743.539,103.27 717.19,94.341 694.897,110.985 695.246,83.167 
	672.215,65.132 699.406,60.82 "/>
<polygon style="display:inline;fill:none;stroke:#FFFFFF;stroke-width:3.8727;stroke-linecap:round;stroke-linejoin:round;stroke-miterlimit:10;" points="
	405.207,779.854 390.121,805.354 405.848,827.952 376.886,823.835 357.067,843.359 353.626,815.752 328.934,802.935 
	354.127,791.132 360.328,762.544 376.055,785.142 "/>
<polygon style="display:inline;fill:none;stroke:#FFFFFF;stroke-width:3.8727;stroke-linecap:round;stroke-linejoin:round;stroke-miterlimit:10;" points="
	842.286,363.202 822.322,385.094 833.114,410.422 805.599,400.491 782.218,415.568 784.474,387.838 762.911,370.259 789.98,363.836 
	801.875,337.112 812.668,362.439 "/>
<g style="display:inline;">
	<path style="fill:none;stroke:#FFFFFF;stroke-width:3.8727;stroke-linecap:round;stroke-linejoin:round;stroke-miterlimit:10;" d="
		M559.056,803.025c2.582-2.485,6.692-2.408,9.178,0.175c2.485,2.583,2.408,6.692-0.175,9.179c-2.583,2.486-6.692,2.407-9.178-0.175
		C556.394,809.621,556.473,805.512,559.056,803.025z"/>
	<path style="fill:none;stroke:#FFFFFF;stroke-width:3.8727;stroke-linecap:round;stroke-linejoin:round;stroke-miterlimit:10;" d="
		M537.588,823.69c2.583-2.485,6.693-2.407,9.179,0.175c2.486,2.583,2.408,6.693-0.175,9.179c-2.583,2.486-6.692,2.407-9.178-0.175
		C534.928,830.286,535.005,826.176,537.588,823.69z"/>
	<path style="fill:none;stroke:#FFFFFF;stroke-width:3.8727;stroke-linecap:round;stroke-linejoin:round;stroke-miterlimit:10;" d="
		M495.641,864.069c2.582-2.486,6.692-2.407,9.178,0.175c2.486,2.583,2.408,6.692-0.174,9.179c-2.583,2.486-6.693,2.408-9.178-0.175
		C492.979,870.665,493.058,866.555,495.641,864.069z"/>
	<path style="fill:none;stroke:#FFFFFF;stroke-width:3.8727;stroke-linecap:round;stroke-linejoin:round;stroke-miterlimit:10;" d="
		M523.452,766.038c2.583-2.486,6.692-2.408,9.179,0.176c2.486,2.582,2.407,6.692-0.175,9.178c-2.583,2.485-6.692,2.408-9.178-0.175
		C520.791,772.634,520.87,768.525,523.452,766.038z"/>
	<path style="fill:none;stroke:#FFFFFF;stroke-width:3.8727;stroke-linecap:round;stroke-linejoin:round;stroke-miterlimit:10;" d="
		M552.039,773.468c2.583-2.486,6.693-2.408,9.178,0.175c2.486,2.583,2.408,6.692-0.174,9.178c-2.583,2.487-6.692,2.409-9.178-0.174
		C549.378,780.064,549.457,775.955,552.039,773.468z"/>
	<path style="fill:none;stroke:#FFFFFF;stroke-width:3.8727;stroke-linecap:round;stroke-linejoin:round;stroke-miterlimit:10;" d="
		M507.541,816.301c2.583-2.485,6.692-2.407,9.178,0.175c2.486,2.583,2.409,6.692-0.173,9.178c-2.583,2.486-6.693,2.407-9.179-0.174
		C504.88,822.897,504.958,818.788,507.541,816.301z"/>
	<path style="fill:none;stroke:#FFFFFF;stroke-width:3.8727;stroke-linecap:round;stroke-linejoin:round;stroke-miterlimit:10;" d="
		M486.851,836.218c2.581-2.485,6.692-2.408,9.178,0.175c2.486,2.583,2.408,6.693-0.175,9.178c-2.582,2.486-6.692,2.408-9.178-0.175
		C484.19,842.814,484.268,838.705,486.851,836.218z"/>
	<path style="fill:none;stroke:#FFFFFF;stroke-width:3.8727;stroke-linecap:round;stroke-linejoin:round;stroke-miterlimit:10;" d="
		M501.985,786.704c2.582-2.486,6.692-2.409,9.178,0.175c2.486,2.582,2.408,6.692-0.175,9.179c-2.582,2.485-6.691,2.407-9.177-0.176
		C499.324,793.299,499.402,789.19,501.985,786.704z"/>
	<path style="fill:none;stroke:#FFFFFF;stroke-width:3.8727;stroke-linecap:round;stroke-linejoin:round;stroke-miterlimit:10;" d="
		M460.037,827.083c2.583-2.486,6.692-2.408,9.179,0.175c2.486,2.581,2.407,6.692-0.176,9.178c-2.583,2.485-6.692,2.408-9.178-0.175
		C457.376,833.678,457.454,829.568,460.037,827.083z"/>
	<path style="fill:none;stroke:#FFFFFF;stroke-width:3.8727;stroke-linecap:round;stroke-linejoin:round;stroke-miterlimit:10;" d="
		M484.444,838.83c-6.119-1.83-14.085-4.211-14.085-4.211"/>
	<path style="fill:none;stroke:#FFFFFF;stroke-width:3.8727;stroke-linecap:round;stroke-linejoin:round;stroke-miterlimit:10;" d="
		M498.278,862.533c0,0-2.774-8.669-4.811-15.032"/>
	<path style="fill:none;stroke:#FFFFFF;stroke-width:3.8727;stroke-linecap:round;stroke-linejoin:round;stroke-miterlimit:10;" d="
		M508.13,797.807c1.287,5.028,3.057,11.941,4.274,16.702"/>
	<path style="fill:none;stroke:#FFFFFF;stroke-width:3.8727;stroke-linecap:round;stroke-linejoin:round;stroke-miterlimit:10;" d="
		M523.277,775.217c-3.624,3.488-7.952,7.655-11.648,11.212"/>
	<path style="fill:none;stroke:#FFFFFF;stroke-width:3.8727;stroke-linecap:round;stroke-linejoin:round;stroke-miterlimit:10;" d="
		M549.895,776.417c-4.666-1.212-10.525-2.735-15.294-3.976"/>
	<path style="fill:none;stroke:#FFFFFF;stroke-width:3.8727;stroke-linecap:round;stroke-linejoin:round;stroke-miterlimit:10;" d="
		M561.909,800.758c-1.165-4.906-2.713-11.431-3.849-16.211"/>
	<path style="fill:none;stroke:#FFFFFF;stroke-width:3.8727;stroke-linecap:round;stroke-linejoin:round;stroke-miterlimit:10;" d="
		M547.369,823.285c3.495-3.365,8.041-7.74,11.425-10.998"/>
	<path style="fill:none;stroke:#FFFFFF;stroke-width:3.8727;stroke-linecap:round;stroke-linejoin:round;stroke-miterlimit:10;" d="
		M519.066,821.531c4.661,1.384,11.48,3.409,16.488,4.896"/>
	
		<line style="fill:none;stroke:#FFFFFF;stroke-width:3.8727;stroke-linecap:round;stroke-linejoin:round;stroke-miterlimit:10;" x1="496.029" y1="836.393" x2="507.366" y2="825.48"/>
</g>
<g style="display:inline;">
	<g>
		<g>
			<g>
				<g>
					
						<path style="fill:none;stroke:#FFFFFF;stroke-width:3.8727;stroke-linecap:round;stroke-linejoin:round;stroke-miterlimit:10;" d="
						M444.725,155.958l0.002,0.015C444.727,155.962,444.725,155.958,444.725,155.958z"/>
					
						<path style="fill:none;stroke:#FFFFFF;stroke-width:3.8727;stroke-linecap:round;stroke-linejoin:round;stroke-miterlimit:10;" d="
						M443.628,156.041l-0.001-0.018C443.627,156.023,443.629,156.029,443.628,156.041z"/>
					
						<path style="fill:none;stroke:#FFFFFF;stroke-width:3.8727;stroke-linecap:round;stroke-linejoin:round;stroke-miterlimit:10;" d="
						M456.25,153.473c-7.025,2.13-12.605,2.832-12.605,2.832c-1.379,0.092-4.529-0.088-11.751-1.356
						c-11.245-1.976-26.952,8.752-25.731,29.666c0.941,16.148,17.716,42.048,30.459,41.275c2.95-0.176,9.12-3.778,11.508-3.923
						c2.386-0.144,9.039,2.68,11.994,2.5c12.741-0.771,26.261-28.508,25.253-44.652C484.062,158.907,467.173,150.154,456.25,153.473
						z"/>
				</g>
			</g>
		</g>
		
			<path style="fill:none;stroke:#FFFFFF;stroke-width:3.8727;stroke-linecap:round;stroke-linejoin:round;stroke-miterlimit:10;" d="
			M444.725,155.958c0,0,3.929-15.989-8.417-27.688"/>
	</g>
	<path style="fill:none;stroke:#FFFFFF;stroke-width:3.8727;stroke-linecap:round;stroke-linejoin:round;stroke-miterlimit:10;" d="
		M444.727,142.115l9.271-7.763c0,0-2.492-6.293,1.457-12.434c5.604-8.713,21.171-8.449,21.171-8.449s1.495,15.671-9.412,20.519
		c-6.559,2.915-13.216,0.365-13.216,0.365"/>
</g>
<g style="display:inline;">
	<g>
		<path style="fill:#324446;" d="M633.205,460.743c0.404,12.187-91.855,77.869-184.962,78.654
			c-94.626,0.798-190.126-63.442-190.126-78.582v57.065c0,15.139,63.207,69.638,190.126,69.638
			c120.642,0,185.366-57.451,184.962-69.638V460.743z"/>
		<g>
			<path style="fill:#324446;" d="M633.203,461.121c0-0.018-0.002-0.037-0.002-0.055v0.11
				C633.202,461.158,633.203,461.141,633.203,461.121z"/>
			<path style="fill:#4E6566;" d="M633.104,458.957c-3.099-37.248-85.829-67.092-187.445-67.092
				c-101.662,0-184.423,29.871-187.451,67.142c-0.057,0.702-0.095,1.406-0.095,2.114c0,37.941,82.622,77.764,185.048,78.259
				c0.832,0.003,1.662,0.012,2.498,0.012c0.107,0,0.214-0.003,0.322-0.003c0.753,0.003,1.506,0.014,2.258,0.008
				c0.454-0.004,0.908-0.018,1.363-0.025c101.707-0.775,183.52-40.46,183.6-78.195v-0.11
				C633.2,460.361,633.161,459.658,633.104,458.957z"/>
		</g>
		<path style="fill:#324446;" d="M623.42,302.155l-177.761,97.08l-177.761-97.08l0.342,156.013
			c0,14.321,55.385,67.503,179.862,67.503c133.853,0,175.359-55.974,174.978-67.503L623.42,302.155z"/>
		<path style="opacity:0.5;fill:#0B2025;" d="M268.129,424.552c0-19.665,30.092-20.944,71.195-2.5
			c68.628,30.795,147.333,103.5,203.945,91.716c53.302-15.339,75.415-41.341,79.204-52.414c0.258-2.415,0.467-4.451,0.613-5.903
			l0.156-71.402c-2.59-0.078-72.39-2.193-141.575-4.479l-36.007,19.664l-40.86-22.315c-35.849-1.312-61.43-2.412-60.975-2.868
			c1.5-1.5-71.5-13.5-71.5-13.5l-4.292,2.542L268.129,424.552z"/>
		<defs>
			<filter id="Adobe_OpacityMaskFilter" filterUnits="userSpaceOnUse" x="566.324" y="380.886" width="57" height="126.667">
				<feColorMatrix  type="matrix" values="1 0 0 0 0  0 1 0 0 0  0 0 1 0 0  0 0 0 1 0"/>
			</filter>
		</defs>
		
			<mask maskUnits="userSpaceOnUse" x="566.324" y="380.886" width="57" height="126.667" id="SVGID_00000138567829759664325870000002909570051778415258_">
			<g style="filter:url(#Adobe_OpacityMaskFilter);">
				
					<linearGradient id="SVGID_00000165950738534735106030000016241385940889157015_" gradientUnits="userSpaceOnUse" x1="673.3241" y1="449.0522" x2="568.2944" y2="449.0522">
					<stop  offset="0" style="stop-color:#FFFFFF"/>
					<stop  offset="0.1137" style="stop-color:#DADADA"/>
					<stop  offset="0.3617" style="stop-color:#8D8D8D"/>
					<stop  offset="0.5833" style="stop-color:#515151"/>
					<stop  offset="0.77" style="stop-color:#252525"/>
					<stop  offset="0.9148" style="stop-color:#0A0A0A"/>
					<stop  offset="1" style="stop-color:#000000"/>
				</linearGradient>
				
					<rect x="442.324" y="299.552" style="fill:url(#SVGID_00000165950738534735106030000016241385940889157015_);" width="322" height="299"/>
			</g>
		</mask>
		<polygon style="opacity:0.7;mask:url(#SVGID_00000138567829759664325870000002909570051778415258_);fill:#18AEC8;" points="
			623.324,438.219 623.324,380.886 566.324,405.552 569.324,507.552 619.991,464.219 		"/>
		<path style="opacity:0;fill:#0B2025;" d="M351.975,478.719c27.096,9.553,59.136,15.5,93.637,15.5
			c109.006,0,177.469-40.667,177.469-71.42l0.34-108.498l-177.761-17.754l-177.761,12.588l0.342,93.75
			c0,25.514,28.126,53.169,71.847,71.285L351.975,478.719z"/>
		<polygon style="fill:#324446;" points="638.908,300.057 445.542,213.078 253.709,300.057 161.842,318.045 161.842,336.991 
			161.848,336.991 445.542,462.983 731.767,336.991 731.777,336.991 731.777,318.045 		"/>
		<polygon style="fill:#4E6566;" points="445.542,189.278 161.842,318.045 445.542,444.034 731.777,318.045 		"/>
		<path style="opacity:0.4;fill:#0B2025;" d="M449.659,301.657c0,0-128.974,38.334-148.555,72.878
			c-2.056,3.626-3.409,9.794-4.279,17.039l11.25,6.479c0,0,0.131-15.254,2.041-18.596c19.546-34.202,150.709-73.654,150.709-73.654
			L449.659,301.657z"/>
		<path style="opacity:0.5;fill:#0B2025;" d="M471.72,303.508c0,6.656-11.288,12.057-25.201,12.057
			c-13.918,0-25.197-5.4-25.197-12.057c0-6.655,11.279-12.054,25.197-12.054C460.432,291.454,471.72,296.853,471.72,303.508z"/>
		<g>
			<g>
				<path style="fill:#FCC90D;" d="M293.586,439.474c-0.495-10.557-2.173-56.101,4.924-68.62
					c18.086-31.906,134.556-68.045,146.42-71.655l4.424,3.347c-21.878,6.586-127.269,39.686-145.309,71.251
					c-7.107,12.437-4.853,55.158-4.246,64.741L293.586,439.474z"/>
			</g>
			<path style="fill:#DB8616;" d="M428.509,309.131l7.493-2.144c0,0-3.457-3.639-3.995-3.909c-0.538-0.269-3.211,1.055-3.211,1.055
				l-1.452,0.604C428.644,304.513,430.191,308.458,428.509,309.131z"/>
		</g>
		<g>
			<path style="fill:#324446;" d="M469.983,297.4c0,6.194-10.51,11.22-23.464,11.22c-12.96,0-23.461-5.026-23.461-11.22
				c0-6.203,10.501-11.227,23.461-11.227C459.474,286.173,469.983,291.197,469.983,297.4z"/>
		</g>
		<g>
			
				<linearGradient id="SVGID_00000163042233292044671520000011208631678238274225_" gradientUnits="userSpaceOnUse" x1="291.0766" y1="472.0012" x2="300.8838" y2="472.0012">
				<stop  offset="0" style="stop-color:#FFF200"/>
				<stop  offset="1" style="stop-color:#F7941E"/>
			</linearGradient>
			
				<rect x="291.077" y="456.214" style="fill:url(#SVGID_00000163042233292044671520000011208631678238274225_);" width="9.807" height="31.574"/>
		</g>
		<g>
			
				<linearGradient id="SVGID_00000102521249702759406380000010497686143500338355_" gradientUnits="userSpaceOnUse" x1="919.2465" y1="884.7795" x2="1083.5475" y2="903.1046" gradientTransform="matrix(0.8894 0 0 0.8894 -605.4679 -274.3713)">
				<stop  offset="0" style="stop-color:#FFF200"/>
				<stop  offset="0.4571" style="stop-color:#FBC010"/>
				<stop  offset="0.8064" style="stop-color:#F8A01A"/>
				<stop  offset="1" style="stop-color:#F7941E"/>
			</linearGradient>
			<path style="fill:url(#SVGID_00000102521249702759406380000010497686143500338355_);" d="M329.681,566.956
				c0-4.17-3.704-37.138-10.107-66.154c-4.993-22.627-10.548-43.264-24.313-43.264c-31.417,0-35.065,100.83-34.429,109.418
				c0.374,5.044,2.953,10.249,10.214,14.319c2.278,1.277,5.86,2.245,7.282,2.593c4.478,1.097,10.04,1.74,16.925,1.743
				c3.236,0.001,6.214,0.018,8.881-0.446c3.523-0.613,5.19-0.779,7.122-1.2C325.554,580.857,329.681,572.642,329.681,566.956z"/>
			<path style="fill:#FFCD2E;" d="M298.501,457.963c-0.934-0.246-1.909-0.386-2.931-0.41c-1.572,0.943-3.62,2.248-6.246,3.999
				c-20.753,13.836-26.368,85.288-26.497,112.059c1.566,2.758,4.16,5.388,8.219,7.664c2.278,1.277,5.86,2.245,7.282,2.593
				c1.957,0.479,4.134,0.866,6.525,1.156c0.446-45.427,6.11-115.771,9.471-122.972C294.324,462.052,296.777,459.828,298.501,457.963
				z"/>
			<path style="fill:#D8810E;" d="M323.243,578.657c4.771-3.664,6.438-8.125,6.438-11.701c0-7.421-3.003-109.418-34.42-109.418
				c-4.337,0-8.142,1.929-11.482,5.264c-1.809,2.587,13.774,3.593,18.545,10.75c11.333,17,21,49,21,104.333
				C323.324,578.152,323.271,578.4,323.243,578.657z"/>
		</g>
	</g>
	<path style="opacity:0.2;fill:#0B2025;" d="M657.991,617.219c-22.772,7.867-42.127,15.525-61.28,23.871
		c-10.208-25.338-76.045-44.89-155.752-44.89c-86.784,0-157.135,23.177-157.135,51.765c0,28.186,68.386,51.112,153.483,51.752
		c-26.201,4.265-44.983,12.769-44.983,22.336c0,11.705,14.188,26.172,33.5,31c26,6.5,38,1.5,45.5-1
		c44.02-14.673,234.595-95.583,246.667-102.5C731.897,641.585,676.324,610.886,657.991,617.219z"/>
	
		<radialGradient id="SVGID_00000119077847862281665620000015564243757145072296_" cx="454.3242" cy="774.5523" r="172.5863" gradientUnits="userSpaceOnUse">
		<stop  offset="0" style="stop-color:#231F20"/>
		<stop  offset="0.216" style="stop-color:#534F50"/>
		<stop  offset="1" style="stop-color:#FFFFFF"/>
	</radialGradient>
	<path style="opacity:0.2;fill:url(#SVGID_00000119077847862281665620000015564243757145072296_);" d="M657.324,619.552
		c-23.333,6-41.46,13.191-60.613,21.537c-10.208-25.338-76.045-44.89-155.752-44.89c-86.784,0-157.135,23.177-157.135,51.765
		c0,28.186,68.386,51.112,153.483,51.752c-26.201,4.265-44.983,12.769-44.983,22.336c0,11.705,14.188,26.172,33.5,31
		c26,6.5,38,1.5,45.5-1c44.02-14.673,234.595-95.583,246.667-102.5C731.897,641.585,675.076,614.987,657.324,619.552z"/>
	<g>
		<path style="fill:#AA160B;" d="M586.501,552.734c21.991,29.618,26.161,63.77,9.312,76.279
			c-16.849,12.51-48.333-1.361-70.326-30.979c-21.991-29.619-26.161-63.771-9.312-76.279
			C533.023,509.244,564.509,523.114,586.501,552.734z"/>
		<g>
			<path style="fill:#CCCACB;" d="M675.149,389.927l0.104,0.117c14.959-12.391,43.667-2.945,64.347,21.255
				c19.456,22.77,24.907,50.526,13.347,64.423l-292.53,266.129l-78.226-86.263L675.149,389.927z"/>
			<path style="fill:#B5C0C9;" d="M395.137,721.407c-9.152-10.711-17.712-21.375-20.356-32.332
				c-1.024-4.247,8.736-9.289,6.852-12.858c-3.349-6.345-3.005-16.96,2.791-21.914c14.883-12.718,43.812-3.294,64.612,21.047
				c20.799,24.341,25.596,54.386,10.713,67.102C444.864,755.172,415.935,745.748,395.137,721.407z"/>
			<g>
				<path style="opacity:0.4;fill:#90A3AF;" d="M591.665,492.569l0.071,0.076c10.081-8.349,29.431-1.982,43.367,14.329
					c13.113,15.343,16.787,34.051,8.997,43.415l0.287,0.316L446.945,729.751c0,0,10.273-18.347-9.331-41.83
					c-17.798-21.319-36.856-14.904-36.856-14.904L591.665,492.569z"/>
				<path style="opacity:0.4;fill:#90A3AF;" d="M433.277,684.882c-2.9-3.393-20.579,16.558-23.066,13.244
					c-9.533-12.718-13.201-18.257-5.246-25.054c10.032-8.57,18.632-1.557,32.649,14.85c14.019,16.405,18.91,33.664,8.878,42.234
					c-4.319,3.693,4.072-3.476,3.838-11.5C450.024,708.051,441.256,694.221,433.277,684.882z"/>
			</g>
			<path style="fill:#F8FFFF;" d="M449.036,675.352c-20.8-24.342-49.729-33.765-64.612-21.048c-0.643,0.548-1.234,1.144-1.804,1.754
				l-0.428-0.471l292.958-265.66l0.104,0.117c14.959-12.391,43.667-2.945,64.347,21.255c19.456,22.77,24.907,50.526,13.347,64.423
				L462.658,743.552l-2.25-1.713C474.465,728.798,469.515,699.317,449.036,675.352z"/>
			<path style="opacity:0.5;fill:#B3C0C6;" d="M621.83,564.245c-0.068-0.253,16.559,9.042,16.495,8.807l120.5-114.5
				c1-21-11.385-38.132-19.255-47.342c-1.531-1.792-3.11-3.493-4.719-5.119l-119.3,106.615c0.661-2.61,1.012-3.998,1.691-6.681
				c-4.049,0.406-6.073,0.609-10.122,1.015c-0.123-2.6-0.185-3.9-0.308-6.5c-3.862,0.965-5.794,1.447-9.656,2.411
				c-0.88-2.329-1.32-3.494-2.2-5.823c-3.522,1.438-5.283,2.157-8.804,3.594c-1.528-1.969-2.292-2.954-3.82-4.923
				c-3.076,1.811-4.613,2.716-7.689,4.527c-2.063-1.551-3.094-2.326-5.157-3.877c-2.539,2.087-3.81,3.13-6.349,5.217
				c-2.474-1.1-3.71-1.649-6.184-2.749c-1.958,2.27-2.938,3.405-4.896,5.675c-2.766-0.632-4.148-0.949-6.914-1.581
				c-1.348,2.361-2.022,3.542-3.371,5.903c-2.942-0.165-4.414-0.247-7.356-0.412c-0.729,2.371-1.094,3.556-1.823,5.927
				c-3.009,0.293-4.514,0.439-7.522,0.732c-0.109,2.298-0.163,3.447-0.272,5.745c-2.977,0.733-4.465,1.1-7.442,1.834
				c0.488,2.161,0.746,3.227,1.214,5.41c-2.856,1.161-4.284,1.742-7.128,2.891c1.057,1.958,1.594,2.926,2.722,4.807
				c-2.633,1.552-3.965,2.343-6.587,3.881c1.606,1.669,2.428,2.483,4.134,4.043c-2.367,1.955-3.569,2.952-5.884,4.851
				c2.101,1.333,3.191,1.955,5.449,3.117c-2.014,2.311-3.036,3.484-4.951,5.688c2.544,0.927,3.866,1.337,6.658,1.995
				c-1.5,2.532-2.262,3.812-3.733,6.313c3.03,0.341,4.618,0.432,7.823,0.582c-0.989,2.775-1.49,4.169-2.446,6.908
				c3.349-0.211,5.069-0.366,8.522-0.689c-0.399,2.934-0.608,4.412-0.966,7.302c3.477-0.717,5.246-1.11,8.798-1.909
				c0.217,3.023,0.315,4.546,0.637,7.456c1.728-0.61,3.03-1.076,4.345-1.554l-92.378,82.556l12.792,11.311l12.949,47.353l145-132
				c1.159-0.051-4.253-16.822-2.744-16.901c0.045-1.312,0.085-2.442,0.122-3.495l9.161-8.413
				C621.178,564.244,621.487,564.244,621.83,564.245z"/>
			<path style="opacity:0.4;fill:#5AC7D3;" d="M752.947,475.722c3.738-4.494,5.687-10.443,5.969-17.199l-0.092,0.029
				L642.426,568.987l-43.593,38.116l-125.009,113.95l-12.375,21.58l1.209,0.92L752.947,475.722z"/>
			<g>
				<path style="fill:#FFFFFF;" d="M453.007,750.974c8.68-3.021,15.177-9.319,18.543-18.103
					c5.898-15.385,0.984-35.908-13.145-54.897c-26.094-35.074-52.415-38.845-68.337-30.695c-5.798,2.972-9.579,7.325-11.234,12.938
					c-4.083,13.838,6.208,31.665,11.738,41.242l0.802,1.393c7.07,12.325,35.384,36.62,51.297,30.178
					c5.18-2.092,8.644-5.432,10.293-9.925c3.614-9.842-2.776-22.022-6.209-28.565l-0.503-0.961
					c-4.668-8.969-27.545-31.628-40.562-25.231c-4.026,1.984-6.54,5.219-7.268,9.356c-1.454,8.253,4.707,18.22,9.202,22.904
					c1.371,1.431,3.643,1.477,5.07,0.104c1.43-1.372,1.478-3.642,0.105-5.072c-3.493-3.64-8.233-11.463-7.312-16.695
					c0.329-1.867,1.4-3.19,3.372-4.161c6.891-3.417,26.772,13.92,31.028,22.104l0.515,0.985c2.708,5.162,8.345,15.902,5.829,22.756
					c-0.936,2.549-2.979,4.427-6.246,5.747c-9.995,4.075-35.408-14.925-42.389-27.095l-0.811-1.408
					c-4.993-8.646-14.282-24.74-11.071-35.627c1.095-3.707,3.587-6.514,7.624-8.581c12.718-6.513,35.866-2.926,59.312,28.59
					c12.654,17.006,17.215,34.969,12.201,48.049c-3.023,7.886-9.351,13.175-17.83,14.882c-18.636,3.759-54.721-16.689-68.853-57.291
					c-0.65-1.87-2.695-2.859-4.566-2.207c-1.871,0.651-2.859,2.696-2.208,4.566c15.617,44.873,55.399,66.331,77.044,61.965
					C450.019,751.9,451.544,751.483,453.007,750.974z"/>
			</g>
			<path style="fill:#90A3AF;" d="M585.62,550.307c-16.211-18.97-36.718-30.035-53.564-30.619l-16.907,15.331
				c0.644-0.184,1.382-0.549,2.279-1.219c13.107-9.804,43.417,3.312,60.842,23.704c19.643,22.987,26.541,49.89,13.805,66.644
				l15.102-13.934C610.239,593.242,602.558,570.131,585.62,550.307z"/>
		</g>
		<path style="fill:#AA160B;" d="M588.62,547.307c-23.738-27.779-56.694-38.623-73.866-24.399l-2.638,2.753l-2.318,4.8l0.78,2.239
			c4.565-3.783,4.773,1.898,9.85-1.901c13.107-9.804,43.417,3.311,60.842,23.704c20.2,23.64,26.929,51.424,12.679,68.049
			c-1.311,1.529,2.458,4.464,1.191,5.987c0,0,1.074,0.164,1.339-0.041c2.851-2.184,7.463-7.238,7.463-7.238
			C617.211,605.308,610.953,573.445,588.62,547.307z"/>
		<g>
			<path style="fill:#D11F11;" d="M620.576,518.794c-23.738-27.781-56.694-38.623-73.865-24.4l-0.122-0.134l-31.242,28.17
				c17.423-13.033,49.822-2.161,73.114,25.097c22.335,26.137,28.591,57.999,15.323,73.953l32.112-28.733
				C649.167,576.792,642.909,544.931,620.576,518.794z"/>
			<path style="opacity:0.5;fill:#B71D0D;" d="M620.576,518.794c-0.151-0.177-0.307-0.346-0.459-0.521
				c-6.888,0.208-14.63,0.592-15.042,1.279c-0.542,0.904-15.973,13.039-24.296,19.886c2.643,2.511,5.216,5.202,7.684,8.089
				c13.438,15.725,21.045,33.518,22.092,48.677l32.049-29.618C641.326,551.623,633.751,534.214,620.576,518.794z"/>
		</g>
		<g>
			<g>
				<g style="enable-background:new    ;">
					<g>
						<polygon style="fill:#E08B0E;" points="660.31,525.781 659.199,532.552 583.431,535.948 581.138,529.3 						"/>
					</g>
					<g>
						<polygon style="fill:#FFD140;" points="643.662,503.194 660.31,525.781 581.138,529.3 602.604,504.297 						"/>
					</g>
				</g>
				<g style="enable-background:new    ;">
					<g>
						<polygon style="fill:#E08B0E;" points="584.956,570.746 587.25,577.393 546.449,554.231 544.156,547.583 						"/>
					</g>
					<g>
						<polygon style="fill:#E08B0E;" points="632.471,558.206 634.764,564.857 587.25,577.393 584.956,570.746 						"/>
					</g>
					<g>
						<polygon style="fill:#FFD140;" points="580.486,530.059 632.471,558.206 584.956,570.746 544.156,547.583 						"/>
					</g>
				</g>
				<polygon style="fill:#E58E0E;" points="593.342,562.464 595.612,556.805 604.073,555.827 604.565,550.375 613.146,548.258 
					612.989,547.658 580.486,530.059 544.156,547.583 579.127,567.437 581.435,567.881 585.359,562.258 				"/>
			</g>
			<g>
				<g>
					<polygon style="fill:#BF2105;" points="595.366,474.643 599.951,487.941 601.216,492.956 596.629,479.66 					"/>
				</g>
				<g>
					<polygon style="fill:#B71D0D;" points="510.819,512.475 515.405,525.773 512.365,521.437 507.78,508.14 					"/>
				</g>
				<g>
					<polygon style="fill:#B71D0D;" points="605.202,477.517 609.789,490.815 609.251,496.269 604.667,482.971 					"/>
				</g>
				<g>
					<polygon style="fill:#B71D0D;" points="507.765,520.033 512.35,533.33 507.716,529.851 503.131,516.553 					"/>
				</g>
				<g>
					<polygon style="fill:#B71D0D;" points="613.131,481.97 617.716,495.268 615.422,500.924 610.835,487.626 					"/>
				</g>
				<g>
					<polygon style="fill:#B71D0D;" points="507.083,527.312 511.669,540.611 505.633,538.139 501.046,524.841 					"/>
				</g>
				<g>
					<polygon style="fill:#B71D0D;" points="618.835,487.81 623.421,501.109 619.446,506.722 614.859,493.425 					"/>
				</g>
				<g>
					<polygon style="fill:#B71D0D;" points="508.788,534 513.374,547.296 506.207,545.941 501.621,532.643 					"/>
				</g>
				<g>
					<polygon style="fill:#B71D0D;" points="622.04,494.785 626.626,508.082 621.15,513.409 616.564,500.112 					"/>
				</g>
				<g>
					<polygon style="fill:#B71D0D;" points="512.821,539.79 517.406,553.088 509.412,552.914 504.825,539.617 					"/>
				</g>
				<g>
					<polygon style="fill:#B71D0D;" points="622.601,502.583 627.188,515.881 620.468,520.69 615.883,507.395 					"/>
				</g>
				<g>
					<polygon style="fill:#B71D0D;" points="518.982,544.454 523.569,557.75 515.103,558.75 510.517,545.455 					"/>
				</g>
				<g>
					<polygon style="fill:#B71D0D;" points="620.518,510.872 625.103,524.169 617.423,528.236 612.837,514.94 					"/>
				</g>
				<g>
					<polygon style="fill:#B71D0D;" points="527.03,547.769 531.616,561.066 523.052,563.199 518.466,549.901 					"/>
				</g>
				<g>
					<polygon style="fill:#D31C04;" points="615.876,519.275 620.462,532.575 612.148,535.738 607.562,522.439 					"/>
				</g>
				<g>
					<polygon style="fill:#D31C04;" points="536.588,549.594 541.175,562.891 532.869,566.08 528.283,552.78 					"/>
				</g>
				<g>
					<polygon style="fill:#B71D0D;" points="607.562,522.439 612.148,535.738 613.453,540.737 608.867,527.441 					"/>
				</g>
				<g>
					<polygon style="fill:#D31C04;" points="608.867,527.441 613.453,540.737 604.873,542.855 600.287,529.557 					"/>
				</g>
				<g>
					<polygon style="fill:#D31C04;" points="547.247,549.85 551.834,563.148 544.181,567.232 539.597,553.935 					"/>
				</g>
				<g>
					<polygon style="fill:#B71D0D;" points="539.597,553.935 544.181,567.232 541.175,562.891 536.588,549.594 					"/>
				</g>
				<g>
					<polygon style="fill:#B71D0D;" points="599.795,535.01 604.381,548.308 595.92,549.285 591.334,535.989 					"/>
				</g>
				<g>
					<polygon style="fill:#D31C04;" points="600.287,529.557 604.873,542.855 604.381,548.308 599.795,535.01 					"/>
				</g>
				<g>
					<polygon style="fill:#D31C04;" points="558.555,548.521 563.141,561.818 556.438,566.643 551.853,553.347 					"/>
				</g>
				<g>
					<polygon style="fill:#B71D0D;" points="551.853,553.347 556.438,566.643 551.834,563.148 547.247,549.85 					"/>
				</g>
				<g>
					<polygon style="fill:#B71D0D;" points="589.064,541.647 593.65,554.945 585.667,554.741 581.081,541.441 					"/>
				</g>
				<g>
					<polygon style="fill:#D31C04;" points="591.334,535.989 595.92,549.285 593.65,554.945 589.064,541.647 					"/>
				</g>
				<g>
					<polygon style="fill:#D31C04;" points="569.992,545.685 574.577,558.983 569.153,564.318 564.567,551.022 					"/>
				</g>
				<g>
					<polygon style="fill:#B71D0D;" points="564.567,551.022 569.153,564.318 563.141,561.818 558.555,548.521 					"/>
				</g>
				<g>
					<polygon style="fill:#B71D0D;" points="577.156,547.065 581.741,560.361 574.577,558.983 569.992,545.685 					"/>
				</g>
				<g>
					<path style="fill:#FF3912;" d="M607.557,522.427l1.305,5.001l-8.581,2.117l-0.491,5.452l-8.461,0.978l-2.269,5.66l-7.983-0.206
						l-3.924,5.623l-7.165-1.379l-5.425,5.336l-6.011-2.501l-6.703,4.826l-4.604-3.496l-7.652,4.083l-3.007-4.34l-8.305,3.188
						l-1.254-5.012l-8.563,2.13l0.517-5.446l-8.466,1.001l2.304-5.665l-7.996-0.173l3.963-5.616l-7.166-1.356l5.462-5.331
						l-6.037-2.471l6.717-4.811l-4.633-3.478l7.688-4.077l-3.04-4.338l8.316-3.163l-1.306-5l8.58-2.118l0.483-5.441l8.461-0.978
						l2.27-5.66l7.983,0.206l3.938-5.621l7.151,1.378l5.438-5.336l6.007,2.489l6.694-4.815l4.606,3.497l7.673-4.093l2.997,4.351
						l8.294-3.19l1.263,5.016l8.573-2.142l-0.534,5.455l8.464-1.001l-2.295,5.656l7.999,0.186l-3.976,5.611l7.182,1.36l-5.475,5.328
						l6.037,2.472l-6.719,4.809l4.636,3.481l-7.682,4.065l3.04,4.337L607.557,522.427z M535.593,544.248"/>
				</g>
				<g>
					<polygon style="fill:#D31C04;" points="581.081,541.441 585.667,554.741 581.741,560.361 577.156,547.065 					"/>
				</g>
			</g>
		</g>
	</g>
</g>
<path style="display:inline;fill:none;stroke:#FFFFFF;stroke-width:3.8727;stroke-linecap:round;stroke-linejoin:round;stroke-miterlimit:10;" d="
	M820.466,107.515l-6.062,8.33c-1.398-0.134-2.898-0.594-4.438-1.14c-1.604-0.569-3.697-1.6-4.757-2.482l-0.139-0.628l29.4-38.068
	c1.76,0.336,4.374,1.118,6.107,1.732c1.668,0.592,4.255,1.654,5.746,2.544l-1.432,48.059c-1.686,0.27-4.413-0.192-6.339-0.874
	c-3.273-1.161-4.469-2.886-4.182-7.771l0.283-4.669c-0.857-0.232-1.885-0.596-2.526-0.824l-9.117-3.233
	C822.241,108.216,821.278,107.875,820.466,107.515z M825.688,100.332c0.835,0.296,1.884,0.596,2.59,0.847l4.687,1.662
	c0.642,0.228,1.518,0.611,2.289,0.884l0.32-4.368c0.27-4.024,0.748-9.853,1.16-14.477l-0.386-0.136
	c-1.917,3.367-5.215,7.979-7.43,11.169L825.688,100.332z"/>
<path style="display:inline;fill:none;stroke:#FFFFFF;stroke-width:3.8727;stroke-linecap:round;stroke-linejoin:round;stroke-miterlimit:10;" d="
	M175.037,35.198c10.494-3.258,18.978-1.256,21.931,8.256c1.406,4.529-0.175,9.572-3.509,12.428
	c5.573,0.091,11.336,4.262,13.211,10.301c3.28,10.569-2.665,17.545-14.215,21.13c-5.813,1.805-12.125,3.598-18.665,5.463
	l-0.693-0.365l-15.77-50.807l0.364-0.692C163.685,38.887,169.602,36.885,175.037,35.198z M175.418,57.757l5.36-1.663
	c5.133-1.594,5.583-5.21,4.669-8.154c-0.913-2.944-3.285-5.519-8.343-3.948c-1.358,0.421-3.549,1.101-5.459,1.611L175.418,57.757z
	 M178.09,66.363l4.569,14.721c2.392-0.825,4.732-1.551,6.317-2.043c6.191-1.922,6.36-6.443,5.376-9.615
	c-1.031-3.321-3.957-6.882-9.997-5.007L178.09,66.363z"/>
<path style="display:inline;fill:none;stroke:#FFFFFF;stroke-width:3.8727;stroke-linecap:round;stroke-linejoin:round;stroke-miterlimit:10;" d="
	M721.96,801.628c-6.107,1.483-7.054,7.805-4.431,18.599c2.45,10.085,7.225,14.264,13.404,12.763
	c4.899-1.19,8.185-4.696,10.883-7.833c2.563,0.957,5.808,3.478,6.961,6.055c-3.082,4.96-9.676,10.323-17.488,12.221
	c-14.983,3.64-22.74-8.163-25.708-20.378c-4.347-17.896,3.235-27.861,14.527-30.604c11.006-2.674,19.82,2.029,21.839,10.337
	c1.087,4.475-0.879,6.908-4.927,7.891c-1.704,0.414-3.051,0.441-4.488,0.414C731.241,805.164,728.209,800.11,721.96,801.628z"/>
<g style="display:inline;">
	<path style="fill:none;stroke:#FFFFFF;stroke-width:3.8727;stroke-linecap:round;stroke-linejoin:round;stroke-miterlimit:10;" d="
		M295.257,868.434"/>
	<path style="fill:none;stroke:#FFFFFF;stroke-width:3.8727;stroke-linecap:round;stroke-linejoin:round;stroke-miterlimit:10;" d="
		M272.398,845.576"/>
	<path style="fill:none;stroke:#FFFFFF;stroke-width:3.8727;stroke-linecap:round;stroke-linejoin:round;stroke-miterlimit:10;" d="
		M295.257,822.717"/>
	<path style="fill:none;stroke:#FFFFFF;stroke-width:3.8727;stroke-linecap:round;stroke-linejoin:round;stroke-miterlimit:10;" d="
		M295.257,822.717c0,12.624-10.234,22.858-22.858,22.858c12.624,0,22.858,10.234,22.858,22.858
		c0-12.624,10.234-22.858,22.858-22.858C305.491,845.576,295.257,835.341,295.257,822.717z"/>
	<path style="fill:none;stroke:#FFFFFF;stroke-width:3.8727;stroke-linecap:round;stroke-linejoin:round;stroke-miterlimit:10;" d="
		M318.115,845.576"/>
</g>
<g style="display:inline;">
	<path style="fill:none;stroke:#FFFFFF;stroke-width:3.8727;stroke-linecap:round;stroke-linejoin:round;stroke-miterlimit:10;" d="
		M343.699,224.026"/>
	<path style="fill:none;stroke:#FFFFFF;stroke-width:3.8727;stroke-linecap:round;stroke-linejoin:round;stroke-miterlimit:10;" d="
		M325.394,205.721"/>
	<path style="fill:none;stroke:#FFFFFF;stroke-width:3.8727;stroke-linecap:round;stroke-linejoin:round;stroke-miterlimit:10;" d="
		M343.699,187.415"/>
	<path style="fill:none;stroke:#FFFFFF;stroke-width:3.8727;stroke-linecap:round;stroke-linejoin:round;stroke-miterlimit:10;" d="
		M343.699,187.415c0,10.11-8.195,18.305-18.305,18.305c10.109,0,18.305,8.196,18.305,18.305c0-10.109,8.196-18.305,18.306-18.305
		C351.895,205.721,343.699,197.525,343.699,187.415z"/>
	<path style="fill:none;stroke:#FFFFFF;stroke-width:3.8727;stroke-linecap:round;stroke-linejoin:round;stroke-miterlimit:10;" d="
		M362.004,205.721"/>
</g>
<g style="display:inline;">
	<path style="fill:none;stroke:#FFFFFF;stroke-width:3.8727;stroke-linecap:round;stroke-linejoin:round;stroke-miterlimit:10;" d="
		M825.698,865.806"/>
	<path style="fill:none;stroke:#FFFFFF;stroke-width:3.8727;stroke-linecap:round;stroke-linejoin:round;stroke-miterlimit:10;" d="
		M807.393,847.5"/>
	<path style="fill:none;stroke:#FFFFFF;stroke-width:3.8727;stroke-linecap:round;stroke-linejoin:round;stroke-miterlimit:10;" d="
		M825.698,829.195"/>
	<path style="fill:none;stroke:#FFFFFF;stroke-width:3.8727;stroke-linecap:round;stroke-linejoin:round;stroke-miterlimit:10;" d="
		M825.698,829.195c0,10.109-8.196,18.305-18.305,18.305c10.109,0,18.305,8.195,18.305,18.305c0-10.11,8.196-18.305,18.305-18.305
		C833.893,847.5,825.698,839.305,825.698,829.195z"/>
	<path style="fill:none;stroke:#FFFFFF;stroke-width:3.8727;stroke-linecap:round;stroke-linejoin:round;stroke-miterlimit:10;" d="
		M844.003,847.5"/>
</g>
<g style="display:inline;">
	<path style="fill:#FABB12;" d="M312.877,447.152c0,9.331-7.567,16.898-16.897,16.898c-9.327,0-16.896-7.567-16.896-16.898
		c0-9.334,7.569-16.897,16.896-16.897C305.31,430.254,312.877,437.818,312.877,447.152z"/>
</g>
<path style="display:inline;fill:#D8810E;" d="M302.13,431.426c2.934,3.039,4.747,7.167,4.747,11.726
	c0,9.331-7.567,16.898-16.898,16.898c-2.17,0-4.239-0.424-6.146-1.171c0.543,0.562,1.124,1.087,1.739,1.57
	c2.868,2.253,6.479,6.937,10.408,6.937c9.678,0,6.176-4.221,8.723-5.759c4.899-2.959,8.175-8.335,8.175-14.475
	C312.877,439.991,308.417,433.887,302.13,431.426z"/>
<g style="display:inline;">
	<g>
		<path style="fill:#D31C04;" d="M585.779,485.792c20.047,3.829,25.573,19.427,12.345,34.834
			c-13.236,15.417-40.218,24.808-60.264,20.981c-20.045-3.829-25.573-19.425-12.337-34.843
			C538.751,491.355,565.734,481.964,585.779,485.792z"/>
	</g>
	<path style="fill:#FCCC0C;" d="M582.621,489.47c-17.407-3.322-40.836,4.826-52.323,18.205
		c-11.496,13.389-6.686,26.929,10.722,30.254c17.405,3.322,40.837-4.825,52.331-18.215
		C604.836,506.333,600.027,492.794,582.621,489.47z"/>
</g>
<polygon style="display:inline;opacity:0.6;fill:#5CC8D3;" points="445.542,462.983 445.542,444.034 731.777,318.045 
	731.777,336.991 "/>
</svg>
